<?xml version="1.0" standalone="no"?>
<!DOCTYPE svg PUBLIC "-//W3C//DTD SVG 20010904//EN"
 "http://www.w3.org/TR/2001/REC-SVG-20010904/DTD/svg10.dtd">
<svg version="1.0" xmlns="http://www.w3.org/2000/svg"
 width="300.000000pt" height="300.000000pt" viewBox="0 0 300.000000 300.000000"
 preserveAspectRatio="xMidYMid meet">
<metadata>
Created by potrace 1.14, written by Peter Selinger 2001-2017
</metadata>
<g transform="translate(0.000000,300.000000) scale(0.100000,-0.100000)"
fill="#000000" stroke="none">
<path d="M479 2936 c-3 -4 -3 -2824 0 -2868 1 -5 462 -8 1026 -8 l1025 0 -2
1438 -3 1437 -1021 3 c-561 1 -1022 0 -1025 -2z m1011 -209 c27 -16 25 -19
-16 -39 -28 -13 -42 -14 -65 -6 -51 18 -111 2 -167 -45 -29 -23 -71 -55 -94
-72 -22 -16 -50 -42 -61 -57 -23 -31 -35 -125 -19 -155 8 -14 6 -31 -6 -66
-16 -44 -16 -50 -1 -92 l17 -45 -35 0 c-41 0 -86 22 -107 52 -20 28 -20 88 -2
133 14 32 17 34 53 29 30 -4 34 -3 16 5 -78 35 -42 156 62 207 62 30 81 48 40
38 -24 -6 -26 -5 -17 12 25 47 78 76 141 76 30 0 53 7 66 19 41 37 141 40 195
6z m170 -54 c27 -22 40 -26 84 -24 64 3 115 -28 132 -79 15 -45 7 -68 -28 -86
-23 -12 -36 -13 -60 -5 -39 14 -38 14 -38 -4 0 -25 -40 -57 -63 -51 -12 3 -30
-3 -44 -14 -28 -21 -15 -36 13 -15 10 7 29 11 42 8 25 -6 72 20 72 41 0 11 10
13 41 9 24 -4 50 -1 65 8 20 10 29 11 45 1 27 -17 26 10 -1 29 -14 10 -17 18
-11 28 14 22 66 -4 91 -44 37 -59 19 -134 -40 -169 -44 -25 -69 -21 -82 14
-10 29 -34 50 -58 50 -7 0 -2 -8 9 -18 41 -32 22 -121 -29 -137 -35 -11 -69 3
-76 31 l-7 26 -22 -28 c-29 -36 -79 -38 -106 -3 -10 13 -19 18 -19 11 0 -7 11
-24 25 -37 25 -26 63 -32 95 -15 13 7 27 5 49 -6 20 -10 42 -13 59 -9 30 7 72
42 72 60 0 7 16 12 43 11 50 -1 91 22 115 65 21 36 34 33 48 -11 27 -81 -48
-180 -135 -180 -32 0 -33 1 -27 30 9 45 -10 36 -29 -14 -25 -65 -64 -98 -122
-103 -26 -2 -54 0 -62 5 -18 13 -6 47 22 60 l22 11 -22 0 c-23 1 -43 -16 -76
-63 -20 -29 -80 -49 -124 -40 -25 5 -29 10 -29 39 0 31 2 33 26 29 28 -6 80
28 80 52 0 11 -7 9 -29 -7 -23 -17 -39 -21 -71 -16 -37 5 -40 3 -34 -15 9 -28
-13 -74 -42 -87 -51 -23 -129 -6 -167 36 -17 20 -17 21 19 57 33 33 41 36 61
27 21 -10 28 -26 24 -58 -1 -7 3 -13 9 -13 7 0 10 15 8 38 -3 33 0 38 26 47
55 19 80 74 62 138 -6 19 -5 27 5 27 7 0 20 7 30 16 14 12 22 13 39 4 22 -12
60 -5 60 11 0 6 -5 7 -10 4 -17 -11 -60 23 -60 47 0 22 -26 58 -42 58 -5 0 -1
-11 8 -25 19 -30 12 -57 -24 -86 -23 -18 -27 -29 -27 -71 0 -43 -4 -54 -30
-75 -25 -22 -35 -25 -81 -20 -50 5 -53 4 -64 -24 -40 -96 -180 -35 -180 79 0
53 10 71 40 70 42 -1 62 15 25 22 -36 6 -55 39 -55 96 0 63 51 123 105 124 25
0 33 6 47 40 9 23 30 48 50 60 37 22 107 27 141 9 16 -9 22 -9 25 0 8 25 67
51 114 51 36 0 54 -6 78 -27z m-452 -819 c-76 -32 -46 -74 71 -101 90 -20 313
-23 405 -5 126 25 166 69 96 104 -34 18 -34 18 -5 12 74 -16 107 -50 77 -80
-85 -85 -515 -101 -686 -26 -75 34 -71 68 10 97 53 19 78 18 32 -1z m105 -251
c-25 -9 -12 -34 25 -50 81 -34 280 -26 340 13 20 13 21 18 11 32 -12 16 -11
16 6 0 24 -22 9 -41 -53 -65 -126 -49 -403 0 -352 62 7 8 18 15 24 14 7 0 6
-2 -1 -6z m53 -620 c20 -43 43 -94 52 -113 l17 -35 3 44 c4 57 -4 91 -23 91
-11 0 -15 11 -15 39 0 22 3 42 8 44 4 2 35 2 70 -1 l62 -4 0 -35 c0 -19 -7
-41 -15 -49 -12 -12 -15 -44 -15 -155 l0 -139 -68 0 -69 0 -47 100 c-26 55
-48 100 -50 100 -2 0 -2 -23 -1 -51 1 -36 7 -54 18 -61 12 -6 17 -22 17 -48
l0 -40 -70 0 -70 0 0 45 c0 33 4 45 15 45 12 0 15 18 15 105 0 87 -3 105 -15
105 -11 0 -15 11 -15 38 0 21 3 42 7 45 3 4 39 7 79 7 l73 0 37 -77z m464 57
c110 -56 125 -260 24 -339 -86 -68 -206 -43 -261 54 -33 59 -32 162 2 222 46
78 150 106 235 63z m151 -267 c1 -10 0 -33 -1 -52 -1 -19 4 -38 12 -43 9 -7 8
-8 -7 -6 -15 3 -21 14 -26 48 -3 25 -4 51 -2 58 7 18 23 15 24 -5z m-1125 -28
c1 -14 -2 -22 -7 -19 -11 6 -12 44 -1 44 4 0 8 -11 8 -25z m142 -22 c2 -33 0
-43 -12 -43 -12 0 -14 5 -8 23 12 32 4 55 -21 60 -14 3 -11 5 8 4 28 -2 30 -5
33 -44z m65 30 c2 -10 8 -27 13 -37 5 -13 4 -17 -3 -13 -14 9 -35 67 -24 67 5
0 11 -8 14 -17z m46 -40 c-24 -63 -36 -83 -52 -83 -5 0 -3 8 5 18 9 9 23 41
33 70 9 28 21 52 26 52 5 0 -1 -26 -12 -57z m940 26 c-8 -16 -8 -28 0 -46 9
-19 9 -24 0 -21 -28 9 -27 88 1 88 7 0 7 -7 -1 -21z m57 -6 c7 -28 -4 -54 -27
-62 -12 -4 -12 -2 0 12 8 11 11 28 7 47 -7 37 11 40 20 3z m-1149 -14 c-14 -8
-16 -14 -6 -25 7 -9 8 -14 1 -14 -6 0 -14 5 -17 10 -11 17 3 40 22 40 17 -1
17 -1 0 -11z m-59 -16 c-2 -9 -10 -19 -18 -21 -12 -4 -13 -3 -3 10 7 8 10 18
6 21 -3 4 -1 7 6 7 7 0 11 -8 9 -17z m122 -138 c0 -34 -4 -45 -15 -45 -16 0
-15 -8 9 -95 l12 -40 30 110 29 110 50 0 50 0 27 -99 c15 -54 29 -101 31 -103
2 -2 10 22 17 54 11 44 11 58 2 61 -7 2 -12 22 -12 48 l0 45 78 -3 77 -3 -3
-39 c-2 -23 -12 -46 -23 -55 -11 -10 -33 -69 -56 -151 l-38 -135 -66 -3 -66
-3 -17 63 c-9 35 -20 70 -23 78 -3 8 -15 -19 -27 -60 l-22 -75 -66 -3 -67 -3
-11 43 c-14 52 -59 216 -66 241 -3 9 -12 17 -20 17 -10 0 -14 13 -14 45 l0 45
100 0 100 0 0 -45z m647 33 c6 -7 25 -73 43 -146 24 -95 39 -136 52 -143 13
-7 18 -21 18 -49 l0 -40 -100 0 -100 0 0 45 c0 34 4 45 16 45 35 0 4 25 -34
28 -33 2 -42 0 -42 -12 0 -9 7 -16 15 -16 11 0 15 -12 15 -45 l0 -45 -80 0
-80 0 0 45 c0 33 4 45 15 45 8 0 19 8 24 18 8 16 51 171 51 186 0 3 -11 6 -25
6 -22 0 -25 4 -25 38 0 21 3 42 7 45 12 13 220 8 230 -5z m460 -14 c56 -41 54
-131 -4 -159 l-21 -11 24 -21 c15 -14 24 -32 24 -51 0 -21 6 -31 20 -35 16 -4
20 -14 20 -46 l0 -41 -62 0 c-79 0 -98 15 -98 81 0 63 -7 79 -36 79 -21 0 -24
-5 -24 -34 0 -19 6 -36 13 -39 10 -4 13 -31 8 -79 -1 -5 -44 -8 -96 -8 l-95 0
0 41 c0 32 4 42 20 46 18 5 20 14 20 109 0 97 -1 104 -20 104 -17 0 -20 7 -20
38 0 21 3 42 7 45 3 4 70 6 149 4 127 -2 146 -4 171 -23z"/>
<path d="M1519 2615 c-15 -8 -29 -21 -32 -29 -5 -12 -13 -13 -42 -5 -29 8 -43
7 -72 -8 -52 -26 -76 -62 -77 -120 -1 -41 -6 -53 -35 -81 -29 -29 -33 -37 -28
-69 9 -54 27 -66 25 -17 -1 47 14 80 42 89 16 5 20 15 20 46 0 22 7 53 15 68
18 36 77 64 119 58 23 -3 36 1 53 19 29 31 69 40 107 24 17 -7 47 -13 66 -12
49 1 76 -6 94 -24 13 -13 16 -13 16 -1 0 31 -37 50 -87 44 -38 -4 -53 -1 -72
14 -27 22 -75 24 -112 4z"/>
<path d="M1716 958 c-11 -15 -16 -45 -16 -90 0 -87 12 -118 45 -118 33 0 45
31 45 111 0 98 -39 148 -74 97z"/>
<path d="M1550 488 c0 -7 -3 -30 -6 -50 -6 -35 -5 -38 16 -38 21 0 22 3 16 38
-3 20 -6 43 -6 50 0 6 -4 12 -10 12 -5 0 -10 -6 -10 -12z"/>
<path d="M1964 507 c-10 -26 3 -62 23 -65 20 -3 53 21 53 38 0 30 -65 54 -76
27z"/>
</g>
</svg>
